<svg xmlns="http://www.w3.org/2000/svg" width="640" height="360" viewBox="0 0 640 360">
<rect width="640" height="360" fill="#0b0b0e"/><g><line x1="0" y1="0" x2="0" y2="360" stroke="rgba(255,255,255,.08)" stroke-width="1"/><line x1="34" y1="0" x2="34" y2="360" stroke="rgba(255,255,255,.08)" stroke-width="1"/><line x1="68" y1="0" x2="68" y2="360" stroke="rgba(255,255,255,.08)" stroke-width="1"/><line x1="102" y1="0" x2="102" y2="360" stroke="rgba(255,255,255,.08)" stroke-width="1"/><line x1="136" y1="0" x2="136" y2="360" stroke="rgba(255,255,255,.08)" stroke-width="1"/><line x1="170" y1="0" x2="170" y2="360" stroke="rgba(255,255,255,.08)" stroke-width="1"/><line x1="204" y1="0" x2="204" y2="360" stroke="rgba(255,255,255,.08)" stroke-width="1"/><line x1="238" y1="0" x2="238" y2="360" stroke="rgba(255,255,255,.08)" stroke-width="1"/><line x1="272" y1="0" x2="272" y2="360" stroke="rgba(255,255,255,.08)" stroke-width="1"/><line x1="306" y1="0" x2="306" y2="360" stroke="rgba(255,255,255,.08)" stroke-width="1"/><line x1="340" y1="0" x2="340" y2="360" stroke="rgba(255,255,255,.08)" stroke-width="1"/><line x1="374" y1="0" x2="374" y2="360" stroke="rgba(255,255,255,.08)" stroke-width="1"/><line x1="408" y1="0" x2="408" y2="360" stroke="rgba(255,255,255,.08)" stroke-width="1"/><line x1="442" y1="0" x2="442" y2="360" stroke="rgba(255,255,255,.08)" stroke-width="1"/><line x1="476" y1="0" x2="476" y2="360" stroke="rgba(255,255,255,.08)" stroke-width="1"/><line x1="510" y1="0" x2="510" y2="360" stroke="rgba(255,255,255,.08)" stroke-width="1"/><line x1="544" y1="0" x2="544" y2="360" stroke="rgba(255,255,255,.08)" stroke-width="1"/><line x1="578" y1="0" x2="578" y2="360" stroke="rgba(255,255,255,.08)" stroke-width="1"/><line x1="612" y1="0" x2="612" y2="360" stroke="rgba(255,255,255,.08)" stroke-width="1"/><line x1="0" y1="0" x2="640" y2="0" stroke="rgba(255,255,255,.08)" stroke-width="1"/><line x1="0" y1="34" x2="640" y2="34" stroke="rgba(255,255,255,.08)" stroke-width="1"/><line x1="0" y1="68" x2="640" y2="68" stroke="rgba(255,255,255,.08)" stroke-width="1"/><line x1="0" y1="102" x2="640" y2="102" stroke="rgba(255,255,255,.08)" stroke-width="1"/><line x1="0" y1="136" x2="640" y2="136" stroke="rgba(255,255,255,.08)" stroke-width="1"/><line x1="0" y1="170" x2="640" y2="170" stroke="rgba(255,255,255,.08)" stroke-width="1"/><line x1="0" y1="204" x2="640" y2="204" stroke="rgba(255,255,255,.08)" stroke-width="1"/><line x1="0" y1="238" x2="640" y2="238" stroke="rgba(255,255,255,.08)" stroke-width="1"/><line x1="0" y1="272" x2="640" y2="272" stroke="rgba(255,255,255,.08)" stroke-width="1"/><line x1="0" y1="306" x2="640" y2="306" stroke="rgba(255,255,255,.08)" stroke-width="1"/><line x1="0" y1="340" x2="640" y2="340" stroke="rgba(255,255,255,.08)" stroke-width="1"/></g>

<g font-family="ui-monospace,Menlo,monospace" font-size="10" letter-spacing="2">
  <rect x="70" y="250" width="80" height="26" fill="#141419" stroke="#2dd4bf" stroke-width="1.5"/><text x="80" y="234" fill="#2dd4bf">R1</text><rect x="170" y="210" width="80" height="26" fill="#141419" stroke="#2dd4bf" stroke-width="1.5"/><text x="180" y="194" fill="#2dd4bf">R2</text><rect x="270" y="170" width="80" height="26" fill="#141419" stroke="#2dd4bf" stroke-width="1.5"/><text x="280" y="154" fill="#2dd4bf">R3</text><rect x="370" y="130" width="80" height="26" fill="#141419" stroke="#2dd4bf" stroke-width="1.5"/><text x="380" y="114" fill="#2dd4bf">R4</text><rect x="470" y="90" width="80" height="26" fill="#141419" stroke="#2dd4bf" stroke-width="1.5"/><text x="480" y="74" fill="#a78bfa">R5</text>
  <line x1="40" y1="290" x2="600" y2="290" stroke="#71717a" stroke-width="1" stroke-dasharray="4 6"/>
</g>
<text x="28" y="336" font-family="ui-monospace,Menlo,monospace" font-size="13" letter-spacing="3" fill="#71717a">EVIDENCE LADDER</text>
</svg>