<svg xmlns="http://www.w3.org/2000/svg" width="960" height="520" viewBox="0 0 960 520"><rect width="100%" height="100%" fill="#ffffff"/><style>text{font-family:Inter,Arial,sans-serif;fill:#334155}.axis{stroke:#64748b;stroke-width:1}.grid{stroke:#e2e8f0;stroke-width:1}.pred{fill:none;stroke:#0f766e;stroke-width:3}.ref{fill:#f8fafc;stroke:#334155;stroke-width:1}</style><text x="48" y="38" font-size="22" font-weight="700">FlowLab — Ghia et al. Re = 100 validation</text><line class="grid" x1="70" y1="80" x2="470" y2="80"/><text x="58" y="84" text-anchor="end" font-size="12">1.00</text><line class="grid" x1="70" y1="170" x2="470" y2="170"/><text x="58" y="174" text-anchor="end" font-size="12">0.75</text><line class="grid" x1="70" y1="260" x2="470" y2="260"/><text x="58" y="264" text-anchor="end" font-size="12">0.50</text><line class="grid" x1="70" y1="350" x2="470" y2="350"/><text x="58" y="354" text-anchor="end" font-size="12">0.25</text><line class="grid" x1="70" y1="440" x2="470" y2="440"/><text x="58" y="444" text-anchor="end" font-size="12">0.00</text><line class="axis" x1="70" y1="440" x2="470" y2="440"/><line class="axis" x1="70" y1="80" x2="70" y2="440"/><text x="70" y="62" font-size="14" font-weight="600">Vertical centreline: u / U_lid</text><path class="pred" d="M 454.62 80.00 L 447.42 136.24 L 445.02 154.62 L 442.58 173.24 L 440.18 190.68 L 408.95 354.77 L 372.89 438.22 L 336.83 488.70 L 300.77 513.11 L 286.34 514.76 L 233.48 495.21 L 199.82 475.72 L 178.18 462.65 L 168.55 456.39 L 166.15 454.73 L 163.75 453.08 L 146.92 440.00"/><circle class="ref" cx="454.6153846153846" cy="80" r="4"/><circle class="ref" cx="405.7630769230769" cy="88.42399999999999" r="4"/><circle class="ref" cx="389.6030769230769" cy="91.232" r="4"/><circle class="ref" cx="373.76" cy="94.07600000000001" r="4"/><circle class="ref" cx="358.36" cy="96.88400000000001" r="4"/><circle class="ref" cx="218.15692307692308" cy="133.42399999999998" r="4"/><circle class="ref" cx="147.94461538461536" cy="175.61599999999999" r="4"/><circle class="ref" cx="104.95076923076923" cy="217.80800000000002" r="4"/><circle class="ref" cx="83.59692307692308" cy="260" r="4"/><circle class="ref" cx="82.03076923076922" cy="276.884" r="4"/><circle class="ref" cx="98.73230769230769" cy="338.732" r="4"/><circle class="ref" cx="115.69230769230768" cy="378.11600000000004" r="4"/><circle class="ref" cx="127.12615384615384" cy="403.424" r="4"/><circle class="ref" cx="132.23076923076923" cy="414.692" r="4"/><circle class="ref" cx="134.02461538461537" cy="417.5" r="4"/><circle class="ref" cx="135.48615384615385" cy="420.308" r="4"/><circle class="ref" cx="146.9230769230769" cy="440" r="4"/><text x="70" y="474" font-size="12">● Ghia et al.   — FlowLab 64²</text><line class="grid" x1="540" y1="80" x2="940" y2="80"/><text x="528" y="84" text-anchor="end" font-size="12">1.00</text><line class="grid" x1="540" y1="170" x2="940" y2="170"/><text x="528" y="174" text-anchor="end" font-size="12">0.75</text><line class="grid" x1="540" y1="260" x2="940" y2="260"/><text x="528" y="264" text-anchor="end" font-size="12">0.50</text><line class="grid" x1="540" y1="350" x2="940" y2="350"/><text x="528" y="354" text-anchor="end" font-size="12">0.25</text><line class="grid" x1="540" y1="440" x2="940" y2="440"/><text x="528" y="444" text-anchor="end" font-size="12">0.00</text><line class="axis" x1="540" y1="440" x2="940" y2="440"/><line class="axis" x1="540" y1="80" x2="540" y2="440"/><text x="540" y="62" font-size="14" font-weight="600">Horizontal centreline: v / U_lid</text><path class="pred" d="M 1192.63 440.00 L 1179.49 462.05 L 1176.17 467.62 L 1172.88 473.00 L 1169.60 478.37 L 1153.18 502.23 L 1133.43 521.89 L 1110.40 528.86 L 982.11 419.63 L 870.27 377.15 L 866.99 377.20 L 837.39 382.48 L 811.07 396.06 L 804.46 401.22 L 801.18 403.98 L 797.89 407.16 L 771.58 440.00"/><circle class="ref" cx="771.578947368421" cy="80" r="4"/><circle class="ref" cx="746.7115789473685" cy="91.232" r="4"/><circle class="ref" cx="740.458947368421" cy="94.07600000000001" r="4"/><circle class="ref" cx="734.2568421052631" cy="96.88400000000001" r="4"/><circle class="ref" cx="728.1557894736842" cy="99.692" r="4"/><circle class="ref" cx="700.3621052631579" cy="113.732" r="4"/><circle class="ref" cx="677.0736842105263" cy="130.61599999999999" r="4"/><circle class="ref" cx="668.282105263158" cy="150.308" r="4"/><circle class="ref" cx="794.5431578947369" cy="260" r="4"/><circle class="ref" cx="845.3768421052632" cy="355.61600000000004" r="4"/><circle class="ref" cx="845.2926315789474" cy="358.424" r="4"/><circle class="ref" cx="839.2715789473684" cy="383.732" r="4"/><circle class="ref" cx="823.44" cy="406.232" r="4"/><circle class="ref" cx="817.4315789473685" cy="411.88399999999996" r="4"/><circle class="ref" cx="814.0673684210526" cy="414.692" r="4"/><circle class="ref" cx="810.4547368421053" cy="417.5" r="4"/><circle class="ref" cx="771.578947368421" cy="440" r="4"/><text x="540" y="474" font-size="12">● Ghia et al.   — FlowLab 64²</text><text x="48" y="496" font-size="12">u RMSE 0.00286 · v RMSE 0.00202 · residual 1.89e-7</text></svg>