<?xml version="1.0" encoding="utf-8" standalone="no"?>
<!DOCTYPE svg PUBLIC "-//W3C//DTD SVG 1.1//EN"
  "http://www.w3.org/Graphics/SVG/1.1/DTD/svg11.dtd">
<svg xmlns:xlink="http://www.w3.org/1999/xlink" width="460.8pt" height="345.6pt" viewBox="0 0 460.8 345.6" xmlns="http://www.w3.org/2000/svg" version="1.1">
 <metadata>
  <rdf:RDF xmlns:dc="http://purl.org/dc/elements/1.1/" xmlns:cc="http://creativecommons.org/ns#" xmlns:rdf="http://www.w3.org/1999/02/22-rdf-syntax-ns#">
   <cc:Work>
    <dc:type rdf:resource="http://purl.org/dc/dcmitype/StillImage"/>
    <dc:date>2026-08-28T14:10:07.453068</dc:date>
    <dc:format>image/svg+xml</dc:format>
    <dc:creator>
     <cc:Agent>
      <dc:title>Matplotlib v3.10.8, https://matplotlib.org/</dc:title>
     </cc:Agent>
    </dc:creator>
   </cc:Work>
  </rdf:RDF>
 </metadata>
 <defs>
  <style type="text/css">*{stroke-linejoin: round; stroke-linecap: butt}</style>
 </defs>
 <g id="figure_1">
  <g id="patch_1">
   <path d="M 0 345.6
L 460.8 345.6
L 460.8 0
L 0 0
z
" style="fill: #ffffff"/>
  </g>
  <g id="axes_1">
   <g id="patch_2">
    <path d="M 59.276 303.64
L 442.035 303.64
L 442.035 25.44
L 59.276 25.44
z
" style="fill: #ffffff"/>
   </g>
   <g id="matplotlib.axis_1">
    <g id="xtick_1">
     <g id="line2d_1">
      <defs>
       <path id="m4312a4764c" d="M 0 0
L 0 3.5
" style="stroke: #000000; stroke-width: 0.8"/>
      </defs>
      <g>
       <use xlink:href="#m4312a4764c" x="59.276" y="303.64" style="stroke: #000000; stroke-width: 0.8"/>
      </g>
     </g>
     <g id="text_1">
      <!-- 0.0 -->
      <g transform="translate(51.324438 318.238437) scale(0.1 -0.1)">
       <defs>
        <path id="DejaVuSans-30" d="M 2034 4250
Q 1547 4250 1301 3770
Q 1056 3291 1056 2328
Q 1056 1369 1301 889
Q 1547 409 2034 409
Q 2525 409 2770 889
Q 3016 1369 3016 2328
Q 3016 3291 2770 3770
Q 2525 4250 2034 4250
z
M 2034 4750
Q 2819 4750 3233 4129
Q 3647 3509 3647 2328
Q 3647 1150 3233 529
Q 2819 -91 2034 -91
Q 1250 -91 836 529
Q 422 1150 422 2328
Q 422 3509 836 4129
Q 1250 4750 2034 4750
z
" transform="scale(0.015625)"/>
        <path id="DejaVuSans-2e" d="M 684 794
L 1344 794
L 1344 0
L 684 0
L 684 794
z
" transform="scale(0.015625)"/>
       </defs>
       <use xlink:href="#DejaVuSans-30"/>
       <use xlink:href="#DejaVuSans-2e" transform="translate(63.623047 0)"/>
       <use xlink:href="#DejaVuSans-30" transform="translate(95.410156 0)"/>
      </g>
     </g>
    </g>
    <g id="xtick_2">
     <g id="line2d_2">
      <g>
       <use xlink:href="#m4312a4764c" x="135.8278" y="303.64" style="stroke: #000000; stroke-width: 0.8"/>
      </g>
     </g>
     <g id="text_2">
      <!-- 0.2 -->
      <g transform="translate(127.876238 318.238437) scale(0.1 -0.1)">
       <defs>
        <path id="DejaVuSans-32" d="M 1228 531
L 3431 531
L 3431 0
L 469 0
L 469 531
Q 828 903 1448 1529
Q 2069 2156 2228 2338
Q 2531 2678 2651 2914
Q 2772 3150 2772 3378
Q 2772 3750 2511 3984
Q 2250 4219 1831 4219
Q 1534 4219 1204 4116
Q 875 4013 500 3803
L 500 4441
Q 881 4594 1212 4672
Q 1544 4750 1819 4750
Q 2544 4750 2975 4387
Q 3406 4025 3406 3419
Q 3406 3131 3298 2873
Q 3191 2616 2906 2266
Q 2828 2175 2409 1742
Q 1991 1309 1228 531
z
" transform="scale(0.015625)"/>
       </defs>
       <use xlink:href="#DejaVuSans-30"/>
       <use xlink:href="#DejaVuSans-2e" transform="translate(63.623047 0)"/>
       <use xlink:href="#DejaVuSans-32" transform="translate(95.410156 0)"/>
      </g>
     </g>
    </g>
    <g id="xtick_3">
     <g id="line2d_3">
      <g>
       <use xlink:href="#m4312a4764c" x="212.3796" y="303.64" style="stroke: #000000; stroke-width: 0.8"/>
      </g>
     </g>
     <g id="text_3">
      <!-- 0.4 -->
      <g transform="translate(204.428038 318.238437) scale(0.1 -0.1)">
       <defs>
        <path id="DejaVuSans-34" d="M 2419 4116
L 825 1625
L 2419 1625
L 2419 4116
z
M 2253 4666
L 3047 4666
L 3047 1625
L 3713 1625
L 3713 1100
L 3047 1100
L 3047 0
L 2419 0
L 2419 1100
L 313 1100
L 313 1709
L 2253 4666
z
" transform="scale(0.015625)"/>
       </defs>
       <use xlink:href="#DejaVuSans-30"/>
       <use xlink:href="#DejaVuSans-2e" transform="translate(63.623047 0)"/>
       <use xlink:href="#DejaVuSans-34" transform="translate(95.410156 0)"/>
      </g>
     </g>
    </g>
    <g id="xtick_4">
     <g id="line2d_4">
      <g>
       <use xlink:href="#m4312a4764c" x="288.9314" y="303.64" style="stroke: #000000; stroke-width: 0.8"/>
      </g>
     </g>
     <g id="text_4">
      <!-- 0.6 -->
      <g transform="translate(280.979838 318.238437) scale(0.1 -0.1)">
       <defs>
        <path id="DejaVuSans-36" d="M 2113 2584
Q 1688 2584 1439 2293
Q 1191 2003 1191 1497
Q 1191 994 1439 701
Q 1688 409 2113 409
Q 2538 409 2786 701
Q 3034 994 3034 1497
Q 3034 2003 2786 2293
Q 2538 2584 2113 2584
z
M 3366 4563
L 3366 3988
Q 3128 4100 2886 4159
Q 2644 4219 2406 4219
Q 1781 4219 1451 3797
Q 1122 3375 1075 2522
Q 1259 2794 1537 2939
Q 1816 3084 2150 3084
Q 2853 3084 3261 2657
Q 3669 2231 3669 1497
Q 3669 778 3244 343
Q 2819 -91 2113 -91
Q 1303 -91 875 529
Q 447 1150 447 2328
Q 447 3434 972 4092
Q 1497 4750 2381 4750
Q 2619 4750 2861 4703
Q 3103 4656 3366 4563
z
" transform="scale(0.015625)"/>
       </defs>
       <use xlink:href="#DejaVuSans-30"/>
       <use xlink:href="#DejaVuSans-2e" transform="translate(63.623047 0)"/>
       <use xlink:href="#DejaVuSans-36" transform="translate(95.410156 0)"/>
      </g>
     </g>
    </g>
    <g id="xtick_5">
     <g id="line2d_5">
      <g>
       <use xlink:href="#m4312a4764c" x="365.4832" y="303.64" style="stroke: #000000; stroke-width: 0.8"/>
      </g>
     </g>
     <g id="text_5">
      <!-- 0.8 -->
      <g transform="translate(357.531637 318.238437) scale(0.1 -0.1)">
       <defs>
        <path id="DejaVuSans-38" d="M 2034 2216
Q 1584 2216 1326 1975
Q 1069 1734 1069 1313
Q 1069 891 1326 650
Q 1584 409 2034 409
Q 2484 409 2743 651
Q 3003 894 3003 1313
Q 3003 1734 2745 1975
Q 2488 2216 2034 2216
z
M 1403 2484
Q 997 2584 770 2862
Q 544 3141 544 3541
Q 544 4100 942 4425
Q 1341 4750 2034 4750
Q 2731 4750 3128 4425
Q 3525 4100 3525 3541
Q 3525 3141 3298 2862
Q 3072 2584 2669 2484
Q 3125 2378 3379 2068
Q 3634 1759 3634 1313
Q 3634 634 3220 271
Q 2806 -91 2034 -91
Q 1263 -91 848 271
Q 434 634 434 1313
Q 434 1759 690 2068
Q 947 2378 1403 2484
z
M 1172 3481
Q 1172 3119 1398 2916
Q 1625 2713 2034 2713
Q 2441 2713 2670 2916
Q 2900 3119 2900 3481
Q 2900 3844 2670 4047
Q 2441 4250 2034 4250
Q 1625 4250 1398 4047
Q 1172 3844 1172 3481
z
" transform="scale(0.015625)"/>
       </defs>
       <use xlink:href="#DejaVuSans-30"/>
       <use xlink:href="#DejaVuSans-2e" transform="translate(63.623047 0)"/>
       <use xlink:href="#DejaVuSans-38" transform="translate(95.410156 0)"/>
      </g>
     </g>
    </g>
    <g id="xtick_6">
     <g id="line2d_6">
      <g>
       <use xlink:href="#m4312a4764c" x="442.035" y="303.64" style="stroke: #000000; stroke-width: 0.8"/>
      </g>
     </g>
     <g id="text_6">
      <!-- 1.0 -->
      <g transform="translate(434.083437 318.238437) scale(0.1 -0.1)">
       <defs>
        <path id="DejaVuSans-31" d="M 794 531
L 1825 531
L 1825 4091
L 703 3866
L 703 4441
L 1819 4666
L 2450 4666
L 2450 531
L 3481 531
L 3481 0
L 794 0
L 794 531
z
" transform="scale(0.015625)"/>
       </defs>
       <use xlink:href="#DejaVuSans-31"/>
       <use xlink:href="#DejaVuSans-2e" transform="translate(63.623047 0)"/>
       <use xlink:href="#DejaVuSans-30" transform="translate(95.410156 0)"/>
      </g>
     </g>
    </g>
    <g id="text_7">
     <!-- x/c -->
     <g transform="translate(243.262531 331.916562) scale(0.1 -0.1)">
      <defs>
       <path id="DejaVuSans-78" d="M 3513 3500
L 2247 1797
L 3578 0
L 2900 0
L 1881 1375
L 863 0
L 184 0
L 1544 1831
L 300 3500
L 978 3500
L 1906 2253
L 2834 3500
L 3513 3500
z
" transform="scale(0.015625)"/>
       <path id="DejaVuSans-2f" d="M 1625 4666
L 2156 4666
L 531 -594
L 0 -594
L 1625 4666
z
" transform="scale(0.015625)"/>
       <path id="DejaVuSans-63" d="M 3122 3366
L 3122 2828
Q 2878 2963 2633 3030
Q 2388 3097 2138 3097
Q 1578 3097 1268 2742
Q 959 2388 959 1747
Q 959 1106 1268 751
Q 1578 397 2138 397
Q 2388 397 2633 464
Q 2878 531 3122 666
L 3122 134
Q 2881 22 2623 -34
Q 2366 -91 2075 -91
Q 1284 -91 818 406
Q 353 903 353 1747
Q 353 2603 823 3093
Q 1294 3584 2113 3584
Q 2378 3584 2631 3529
Q 2884 3475 3122 3366
z
" transform="scale(0.015625)"/>
      </defs>
      <use xlink:href="#DejaVuSans-78"/>
      <use xlink:href="#DejaVuSans-2f" transform="translate(59.179688 0)"/>
      <use xlink:href="#DejaVuSans-63" transform="translate(92.871094 0)"/>
     </g>
    </g>
   </g>
   <g id="matplotlib.axis_2">
    <g id="ytick_1">
     <g id="line2d_7">
      <defs>
       <path id="ma06800b4a9" d="M 0 0
L -3.5 0
" style="stroke: #000000; stroke-width: 0.8"/>
      </defs>
      <g>
       <use xlink:href="#ma06800b4a9" x="59.276" y="53.26" style="stroke: #000000; stroke-width: 0.8"/>
      </g>
     </g>
     <g id="text_8">
      <!-- −1.5 -->
      <g transform="translate(27.993188 57.059219) scale(0.1 -0.1)">
       <defs>
        <path id="DejaVuSans-2212" d="M 678 2272
L 4684 2272
L 4684 1741
L 678 1741
L 678 2272
z
" transform="scale(0.015625)"/>
        <path id="DejaVuSans-35" d="M 691 4666
L 3169 4666
L 3169 4134
L 1269 4134
L 1269 2991
Q 1406 3038 1543 3061
Q 1681 3084 1819 3084
Q 2600 3084 3056 2656
Q 3513 2228 3513 1497
Q 3513 744 3044 326
Q 2575 -91 1722 -91
Q 1428 -91 1123 -41
Q 819 9 494 109
L 494 744
Q 775 591 1075 516
Q 1375 441 1709 441
Q 2250 441 2565 725
Q 2881 1009 2881 1497
Q 2881 1984 2565 2268
Q 2250 2553 1709 2553
Q 1456 2553 1204 2497
Q 953 2441 691 2322
L 691 4666
z
" transform="scale(0.015625)"/>
       </defs>
       <use xlink:href="#DejaVuSans-2212"/>
       <use xlink:href="#DejaVuSans-31" transform="translate(83.789062 0)"/>
       <use xlink:href="#DejaVuSans-2e" transform="translate(147.412109 0)"/>
       <use xlink:href="#DejaVuSans-35" transform="translate(179.199219 0)"/>
      </g>
     </g>
    </g>
    <g id="ytick_2">
     <g id="line2d_8">
      <g>
       <use xlink:href="#ma06800b4a9" x="59.276" y="99.626667" style="stroke: #000000; stroke-width: 0.8"/>
      </g>
     </g>
     <g id="text_9">
      <!-- −1.0 -->
      <g transform="translate(27.993188 103.425885) scale(0.1 -0.1)">
       <use xlink:href="#DejaVuSans-2212"/>
       <use xlink:href="#DejaVuSans-31" transform="translate(83.789062 0)"/>
       <use xlink:href="#DejaVuSans-2e" transform="translate(147.412109 0)"/>
       <use xlink:href="#DejaVuSans-30" transform="translate(179.199219 0)"/>
      </g>
     </g>
    </g>
    <g id="ytick_3">
     <g id="line2d_9">
      <g>
       <use xlink:href="#ma06800b4a9" x="59.276" y="145.993333" style="stroke: #000000; stroke-width: 0.8"/>
      </g>
     </g>
     <g id="text_10">
      <!-- −0.5 -->
      <g transform="translate(27.993188 149.792552) scale(0.1 -0.1)">
       <use xlink:href="#DejaVuSans-2212"/>
       <use xlink:href="#DejaVuSans-30" transform="translate(83.789062 0)"/>
       <use xlink:href="#DejaVuSans-2e" transform="translate(147.412109 0)"/>
       <use xlink:href="#DejaVuSans-35" transform="translate(179.199219 0)"/>
      </g>
     </g>
    </g>
    <g id="ytick_4">
     <g id="line2d_10">
      <g>
       <use xlink:href="#ma06800b4a9" x="59.276" y="192.36" style="stroke: #000000; stroke-width: 0.8"/>
      </g>
     </g>
     <g id="text_11">
      <!-- 0.0 -->
      <g transform="translate(36.372875 196.159219) scale(0.1 -0.1)">
       <use xlink:href="#DejaVuSans-30"/>
       <use xlink:href="#DejaVuSans-2e" transform="translate(63.623047 0)"/>
       <use xlink:href="#DejaVuSans-30" transform="translate(95.410156 0)"/>
      </g>
     </g>
    </g>
    <g id="ytick_5">
     <g id="line2d_11">
      <g>
       <use xlink:href="#ma06800b4a9" x="59.276" y="238.726667" style="stroke: #000000; stroke-width: 0.8"/>
      </g>
     </g>
     <g id="text_12">
      <!-- 0.5 -->
      <g transform="translate(36.372875 242.525885) scale(0.1 -0.1)">
       <use xlink:href="#DejaVuSans-30"/>
       <use xlink:href="#DejaVuSans-2e" transform="translate(63.623047 0)"/>
       <use xlink:href="#DejaVuSans-35" transform="translate(95.410156 0)"/>
      </g>
     </g>
    </g>
    <g id="ytick_6">
     <g id="line2d_12">
      <g>
       <use xlink:href="#ma06800b4a9" x="59.276" y="285.093333" style="stroke: #000000; stroke-width: 0.8"/>
      </g>
     </g>
     <g id="text_13">
      <!-- 1.0 -->
      <g transform="translate(36.372875 288.892552) scale(0.1 -0.1)">
       <use xlink:href="#DejaVuSans-31"/>
       <use xlink:href="#DejaVuSans-2e" transform="translate(63.623047 0)"/>
       <use xlink:href="#DejaVuSans-30" transform="translate(95.410156 0)"/>
      </g>
     </g>
    </g>
    <g id="text_14">
     <!-- $C_p$ -->
     <g transform="translate(20.893188 170.39) rotate(-90) scale(0.1 -0.1)">
      <defs>
       <path id="DejaVuSans-Oblique-43" d="M 4447 4306
L 4319 3641
Q 4019 3944 3683 4091
Q 3347 4238 2956 4238
Q 2422 4238 2017 3981
Q 1613 3725 1319 3200
Q 1131 2863 1032 2486
Q 934 2109 934 1728
Q 934 1091 1264 756
Q 1594 422 2222 422
Q 2656 422 3056 561
Q 3456 700 3834 978
L 3688 231
Q 3316 72 2936 -9
Q 2556 -91 2175 -91
Q 1278 -91 773 396
Q 269 884 269 1753
Q 269 2309 461 2846
Q 653 3384 1013 3828
Q 1394 4300 1883 4525
Q 2372 4750 3022 4750
Q 3422 4750 3780 4639
Q 4138 4528 4447 4306
z
" transform="scale(0.015625)"/>
       <path id="DejaVuSans-Oblique-70" d="M 3175 2156
Q 3175 2616 2975 2859
Q 2775 3103 2400 3103
Q 2144 3103 1911 2972
Q 1678 2841 1497 2591
Q 1319 2344 1212 1994
Q 1106 1644 1106 1300
Q 1106 863 1306 627
Q 1506 391 1875 391
Q 2147 391 2380 519
Q 2613 647 2778 891
Q 2956 1147 3065 1494
Q 3175 1841 3175 2156
z
M 1394 2969
Q 1625 3272 1939 3428
Q 2253 3584 2638 3584
Q 3175 3584 3472 3232
Q 3769 2881 3769 2247
Q 3769 1728 3584 1258
Q 3400 788 3053 416
Q 2822 169 2531 39
Q 2241 -91 1919 -91
Q 1547 -91 1294 64
Q 1041 219 916 525
L 556 -1331
L -19 -1331
L 922 3500
L 1497 3500
L 1394 2969
z
" transform="scale(0.015625)"/>
      </defs>
      <use xlink:href="#DejaVuSans-Oblique-43" transform="translate(0 0.78125)"/>
      <use xlink:href="#DejaVuSans-Oblique-70" transform="translate(69.824219 -15.625) scale(0.7)"/>
     </g>
    </g>
   </g>
   <g id="line2d_13">
    <defs>
     <path id="mec15b9ddcd" d="M 0 1.5
C 0.397805 1.5 0.77937 1.341951 1.06066 1.06066
C 1.341951 0.77937 1.5 0.397805 1.5 0
C 1.5 -0.397805 1.341951 -0.77937 1.06066 -1.06066
C 0.77937 -1.341951 0.397805 -1.5 0 -1.5
C -0.397805 -1.5 -0.77937 -1.341951 -1.06066 -1.06066
C -1.341951 -0.77937 -1.5 -0.397805 -1.5 0
C -1.5 0.397805 -1.341951 0.77937 -1.06066 1.06066
C -0.77937 1.341951 -0.397805 1.5 0 1.5
z
" style="stroke: #1f77b4"/>
    </defs>
    <g clip-path="url(#pf5489fe53a)">
     <use xlink:href="#mec15b9ddcd" x="59.349773" y="168.994994" style="fill: #1f77b4; stroke: #1f77b4"/>
     <use xlink:href="#mec15b9ddcd" x="59.644753" y="116.597428" style="fill: #1f77b4; stroke: #1f77b4"/>
     <use xlink:href="#mec15b9ddcd" x="60.234257" y="76.499955" style="fill: #1f77b4; stroke: #1f77b4"/>
     <use xlink:href="#mec15b9ddcd" x="61.117377" y="52.759457" style="fill: #1f77b4; stroke: #1f77b4"/>
     <use xlink:href="#mec15b9ddcd" x="62.292751" y="42.316884" style="fill: #1f77b4; stroke: #1f77b4"/>
     <use xlink:href="#mec15b9ddcd" x="63.758567" y="40.351679" style="fill: #1f77b4; stroke: #1f77b4"/>
     <use xlink:href="#mec15b9ddcd" x="65.512564" y="43.044809" style="fill: #1f77b4; stroke: #1f77b4"/>
     <use xlink:href="#mec15b9ddcd" x="67.552039" y="47.998907" style="fill: #1f77b4; stroke: #1f77b4"/>
     <use xlink:href="#mec15b9ddcd" x="69.873845" y="53.867791" style="fill: #1f77b4; stroke: #1f77b4"/>
     <use xlink:href="#mec15b9ddcd" x="72.474404" y="59.945128" style="fill: #1f77b4; stroke: #1f77b4"/>
     <use xlink:href="#mec15b9ddcd" x="75.349705" y="65.883124" style="fill: #1f77b4; stroke: #1f77b4"/>
     <use xlink:href="#mec15b9ddcd" x="78.495315" y="71.526731" style="fill: #1f77b4; stroke: #1f77b4"/>
     <use xlink:href="#mec15b9ddcd" x="81.906384" y="76.821586" style="fill: #1f77b4; stroke: #1f77b4"/>
     <use xlink:href="#mec15b9ddcd" x="85.577651" y="81.764175" style="fill: #1f77b4; stroke: #1f77b4"/>
     <use xlink:href="#mec15b9ddcd" x="89.503456" y="86.375175" style="fill: #1f77b4; stroke: #1f77b4"/>
     <use xlink:href="#mec15b9ddcd" x="93.677747" y="90.685348" style="fill: #1f77b4; stroke: #1f77b4"/>
     <use xlink:href="#mec15b9ddcd" x="98.094085" y="94.728194" style="fill: #1f77b4; stroke: #1f77b4"/>
     <use xlink:href="#mec15b9ddcd" x="102.745662" y="98.536246" style="fill: #1f77b4; stroke: #1f77b4"/>
     <use xlink:href="#mec15b9ddcd" x="107.625306" y="102.139332" style="fill: #1f77b4; stroke: #1f77b4"/>
     <use xlink:href="#mec15b9ddcd" x="112.725492" y="105.563886" style="fill: #1f77b4; stroke: #1f77b4"/>
     <use xlink:href="#mec15b9ddcd" x="118.038355" y="108.832812" style="fill: #1f77b4; stroke: #1f77b4"/>
     <use xlink:href="#mec15b9ddcd" x="123.555705" y="111.965629" style="fill: #1f77b4; stroke: #1f77b4"/>
     <use xlink:href="#mec15b9ddcd" x="129.269033" y="114.978759" style="fill: #1f77b4; stroke: #1f77b4"/>
     <use xlink:href="#mec15b9ddcd" x="135.169531" y="117.885856" style="fill: #1f77b4; stroke: #1f77b4"/>
     <use xlink:href="#mec15b9ddcd" x="141.248099" y="120.698152" style="fill: #1f77b4; stroke: #1f77b4"/>
     <use xlink:href="#mec15b9ddcd" x="147.495366" y="123.424795" style="fill: #1f77b4; stroke: #1f77b4"/>
     <use xlink:href="#mec15b9ddcd" x="153.901699" y="126.073159" style="fill: #1f77b4; stroke: #1f77b4"/>
     <use xlink:href="#mec15b9ddcd" x="160.457218" y="128.649127" style="fill: #1f77b4; stroke: #1f77b4"/>
     <use xlink:href="#mec15b9ddcd" x="167.151817" y="131.157353" style="fill: #1f77b4; stroke: #1f77b4"/>
     <use xlink:href="#mec15b9ddcd" x="173.975172" y="133.601487" style="fill: #1f77b4; stroke: #1f77b4"/>
     <use xlink:href="#mec15b9ddcd" x="180.916763" y="135.984379" style="fill: #1f77b4; stroke: #1f77b4"/>
     <use xlink:href="#mec15b9ddcd" x="187.965886" y="138.308258" style="fill: #1f77b4; stroke: #1f77b4"/>
     <use xlink:href="#mec15b9ddcd" x="195.111672" y="140.57489" style="fill: #1f77b4; stroke: #1f77b4"/>
     <use xlink:href="#mec15b9ddcd" x="202.343103" y="142.785707" style="fill: #1f77b4; stroke: #1f77b4"/>
     <use xlink:href="#mec15b9ddcd" x="209.649027" y="144.941927" style="fill: #1f77b4; stroke: #1f77b4"/>
     <use xlink:href="#mec15b9ddcd" x="217.018181" y="147.044647" style="fill: #1f77b4; stroke: #1f77b4"/>
     <use xlink:href="#mec15b9ddcd" x="224.439201" y="149.094931" style="fill: #1f77b4; stroke: #1f77b4"/>
     <use xlink:href="#mec15b9ddcd" x="231.900645" y="151.093873" style="fill: #1f77b4; stroke: #1f77b4"/>
     <use xlink:href="#mec15b9ddcd" x="239.391007" y="153.042651" style="fill: #1f77b4; stroke: #1f77b4"/>
     <use xlink:href="#mec15b9ddcd" x="246.898738" y="154.942574" style="fill: #1f77b4; stroke: #1f77b4"/>
     <use xlink:href="#mec15b9ddcd" x="254.412262" y="156.79511" style="fill: #1f77b4; stroke: #1f77b4"/>
     <use xlink:href="#mec15b9ddcd" x="261.919993" y="158.601912" style="fill: #1f77b4; stroke: #1f77b4"/>
     <use xlink:href="#mec15b9ddcd" x="269.410355" y="160.36483" style="fill: #1f77b4; stroke: #1f77b4"/>
     <use xlink:href="#mec15b9ddcd" x="276.871799" y="162.085926" style="fill: #1f77b4; stroke: #1f77b4"/>
     <use xlink:href="#mec15b9ddcd" x="284.292819" y="163.767467" style="fill: #1f77b4; stroke: #1f77b4"/>
     <use xlink:href="#mec15b9ddcd" x="291.661973" y="165.41193" style="fill: #1f77b4; stroke: #1f77b4"/>
     <use xlink:href="#mec15b9ddcd" x="298.967897" y="167.021989" style="fill: #1f77b4; stroke: #1f77b4"/>
     <use xlink:href="#mec15b9ddcd" x="306.199328" y="168.600506" style="fill: #1f77b4; stroke: #1f77b4"/>
     <use xlink:href="#mec15b9ddcd" x="313.345114" y="170.150519" style="fill: #1f77b4; stroke: #1f77b4"/>
     <use xlink:href="#mec15b9ddcd" x="320.394237" y="171.675221" style="fill: #1f77b4; stroke: #1f77b4"/>
     <use xlink:href="#mec15b9ddcd" x="327.335828" y="173.17795" style="fill: #1f77b4; stroke: #1f77b4"/>
     <use xlink:href="#mec15b9ddcd" x="334.159183" y="174.662167" style="fill: #1f77b4; stroke: #1f77b4"/>
     <use xlink:href="#mec15b9ddcd" x="340.853782" y="176.131438" style="fill: #1f77b4; stroke: #1f77b4"/>
     <use xlink:href="#mec15b9ddcd" x="347.409301" y="177.589422" style="fill: #1f77b4; stroke: #1f77b4"/>
     <use xlink:href="#mec15b9ddcd" x="353.815634" y="179.039858" style="fill: #1f77b4; stroke: #1f77b4"/>
     <use xlink:href="#mec15b9ddcd" x="360.062901" y="180.48655" style="fill: #1f77b4; stroke: #1f77b4"/>
     <use xlink:href="#mec15b9ddcd" x="366.141469" y="181.933366" style="fill: #1f77b4; stroke: #1f77b4"/>
     <use xlink:href="#mec15b9ddcd" x="372.041967" y="183.384238" style="fill: #1f77b4; stroke: #1f77b4"/>
     <use xlink:href="#mec15b9ddcd" x="377.755295" y="184.843172" style="fill: #1f77b4; stroke: #1f77b4"/>
     <use xlink:href="#mec15b9ddcd" x="383.272645" y="186.314262" style="fill: #1f77b4; stroke: #1f77b4"/>
     <use xlink:href="#mec15b9ddcd" x="388.585508" y="187.801726" style="fill: #1f77b4; stroke: #1f77b4"/>
     <use xlink:href="#mec15b9ddcd" x="393.685694" y="189.309951" style="fill: #1f77b4; stroke: #1f77b4"/>
     <use xlink:href="#mec15b9ddcd" x="398.565338" y="190.843562" style="fill: #1f77b4; stroke: #1f77b4"/>
     <use xlink:href="#mec15b9ddcd" x="403.216915" y="192.407513" style="fill: #1f77b4; stroke: #1f77b4"/>
     <use xlink:href="#mec15b9ddcd" x="407.633253" y="194.00722" style="fill: #1f77b4; stroke: #1f77b4"/>
     <use xlink:href="#mec15b9ddcd" x="411.807544" y="195.648736" style="fill: #1f77b4; stroke: #1f77b4"/>
     <use xlink:href="#mec15b9ddcd" x="415.733349" y="197.338993" style="fill: #1f77b4; stroke: #1f77b4"/>
     <use xlink:href="#mec15b9ddcd" x="419.404616" y="199.086132" style="fill: #1f77b4; stroke: #1f77b4"/>
     <use xlink:href="#mec15b9ddcd" x="422.815685" y="200.899976" style="fill: #1f77b4; stroke: #1f77b4"/>
     <use xlink:href="#mec15b9ddcd" x="425.961295" y="202.792693" style="fill: #1f77b4; stroke: #1f77b4"/>
     <use xlink:href="#mec15b9ddcd" x="428.836596" y="204.77978" style="fill: #1f77b4; stroke: #1f77b4"/>
     <use xlink:href="#mec15b9ddcd" x="431.437155" y="206.881549" style="fill: #1f77b4; stroke: #1f77b4"/>
     <use xlink:href="#mec15b9ddcd" x="433.758961" y="209.125462" style="fill: #1f77b4; stroke: #1f77b4"/>
     <use xlink:href="#mec15b9ddcd" x="435.798436" y="211.549999" style="fill: #1f77b4; stroke: #1f77b4"/>
     <use xlink:href="#mec15b9ddcd" x="437.552433" y="214.211425" style="fill: #1f77b4; stroke: #1f77b4"/>
     <use xlink:href="#mec15b9ddcd" x="439.018249" y="217.196576" style="fill: #1f77b4; stroke: #1f77b4"/>
     <use xlink:href="#mec15b9ddcd" x="440.193623" y="220.649541" style="fill: #1f77b4; stroke: #1f77b4"/>
     <use xlink:href="#mec15b9ddcd" x="441.076743" y="224.835124" style="fill: #1f77b4; stroke: #1f77b4"/>
     <use xlink:href="#mec15b9ddcd" x="441.666247" y="230.31544" style="fill: #1f77b4; stroke: #1f77b4"/>
     <use xlink:href="#mec15b9ddcd" x="441.961227" y="238.324568" style="fill: #1f77b4; stroke: #1f77b4"/>
    </g>
   </g>
   <g id="line2d_14">
    <defs>
     <path id="mcf2ce6b215" d="M 0 1.5
C 0.397805 1.5 0.77937 1.341951 1.06066 1.06066
C 1.341951 0.77937 1.5 0.397805 1.5 0
C 1.5 -0.397805 1.341951 -0.77937 1.06066 -1.06066
C 0.77937 -1.341951 0.397805 -1.5 0 -1.5
C -0.397805 -1.5 -0.77937 -1.341951 -1.06066 -1.06066
C -1.341951 -0.77937 -1.5 -0.397805 -1.5 0
C -1.5 0.397805 -1.341951 0.77937 -1.06066 1.06066
C -0.77937 1.341951 -0.397805 1.5 0 1.5
z
" style="stroke: #ff7f0e"/>
    </defs>
    <g clip-path="url(#pf5489fe53a)">
     <use xlink:href="#mcf2ce6b215" x="59.349773" y="220.722655" style="fill: #ff7f0e; stroke: #ff7f0e"/>
     <use xlink:href="#mcf2ce6b215" x="59.644753" y="259.784599" style="fill: #ff7f0e; stroke: #ff7f0e"/>
     <use xlink:href="#mcf2ce6b215" x="60.234257" y="280.730062" style="fill: #ff7f0e; stroke: #ff7f0e"/>
     <use xlink:href="#mcf2ce6b215" x="61.117377" y="286.148178" style="fill: #ff7f0e; stroke: #ff7f0e"/>
     <use xlink:href="#mcf2ce6b215" x="62.292751" y="282.061955" style="fill: #ff7f0e; stroke: #ff7f0e"/>
     <use xlink:href="#mcf2ce6b215" x="63.758567" y="273.568841" style="fill: #ff7f0e; stroke: #ff7f0e"/>
     <use xlink:href="#mcf2ce6b215" x="65.512564" y="263.719628" style="fill: #ff7f0e; stroke: #ff7f0e"/>
     <use xlink:href="#mcf2ce6b215" x="67.552039" y="254.015485" style="fill: #ff7f0e; stroke: #ff7f0e"/>
     <use xlink:href="#mcf2ce6b215" x="69.873845" y="245.079405" style="fill: #ff7f0e; stroke: #ff7f0e"/>
     <use xlink:href="#mcf2ce6b215" x="72.474404" y="237.101912" style="fill: #ff7f0e; stroke: #ff7f0e"/>
     <use xlink:href="#mcf2ce6b215" x="75.349705" y="230.080764" style="fill: #ff7f0e; stroke: #ff7f0e"/>
     <use xlink:href="#mcf2ce6b215" x="78.495315" y="223.937971" style="fill: #ff7f0e; stroke: #ff7f0e"/>
     <use xlink:href="#mcf2ce6b215" x="81.906384" y="218.57349" style="fill: #ff7f0e; stroke: #ff7f0e"/>
     <use xlink:href="#mcf2ce6b215" x="85.577651" y="213.888266" style="fill: #ff7f0e; stroke: #ff7f0e"/>
     <use xlink:href="#mcf2ce6b215" x="89.503456" y="209.792984" style="fill: #ff7f0e; stroke: #ff7f0e"/>
     <use xlink:href="#mcf2ce6b215" x="93.677747" y="206.210405" style="fill: #ff7f0e; stroke: #ff7f0e"/>
     <use xlink:href="#mcf2ce6b215" x="98.094085" y="203.075004" style="fill: #ff7f0e; stroke: #ff7f0e"/>
     <use xlink:href="#mcf2ce6b215" x="102.745662" y="200.331592" style="fill: #ff7f0e; stroke: #ff7f0e"/>
     <use xlink:href="#mcf2ce6b215" x="107.625306" y="197.933706" style="fill: #ff7f0e; stroke: #ff7f0e"/>
     <use xlink:href="#mcf2ce6b215" x="112.725492" y="195.842076" style="fill: #ff7f0e; stroke: #ff7f0e"/>
     <use xlink:href="#mcf2ce6b215" x="118.038355" y="194.023286" style="fill: #ff7f0e; stroke: #ff7f0e"/>
     <use xlink:href="#mcf2ce6b215" x="123.555705" y="192.448661" style="fill: #ff7f0e; stroke: #ff7f0e"/>
     <use xlink:href="#mcf2ce6b215" x="129.269033" y="191.09335" style="fill: #ff7f0e; stroke: #ff7f0e"/>
     <use xlink:href="#mcf2ce6b215" x="135.169531" y="189.935608" style="fill: #ff7f0e; stroke: #ff7f0e"/>
     <use xlink:href="#mcf2ce6b215" x="141.248099" y="188.956208" style="fill: #ff7f0e; stroke: #ff7f0e"/>
     <use xlink:href="#mcf2ce6b215" x="147.495366" y="188.137997" style="fill: #ff7f0e; stroke: #ff7f0e"/>
     <use xlink:href="#mcf2ce6b215" x="153.901699" y="187.465534" style="fill: #ff7f0e; stroke: #ff7f0e"/>
     <use xlink:href="#mcf2ce6b215" x="160.457218" y="186.924825" style="fill: #ff7f0e; stroke: #ff7f0e"/>
     <use xlink:href="#mcf2ce6b215" x="167.151817" y="186.503104" style="fill: #ff7f0e; stroke: #ff7f0e"/>
     <use xlink:href="#mcf2ce6b215" x="173.975172" y="186.188682" style="fill: #ff7f0e; stroke: #ff7f0e"/>
     <use xlink:href="#mcf2ce6b215" x="180.916763" y="185.970814" style="fill: #ff7f0e; stroke: #ff7f0e"/>
     <use xlink:href="#mcf2ce6b215" x="187.965886" y="185.839618" style="fill: #ff7f0e; stroke: #ff7f0e"/>
     <use xlink:href="#mcf2ce6b215" x="195.111672" y="185.785999" style="fill: #ff7f0e; stroke: #ff7f0e"/>
     <use xlink:href="#mcf2ce6b215" x="202.343103" y="185.801599" style="fill: #ff7f0e; stroke: #ff7f0e"/>
     <use xlink:href="#mcf2ce6b215" x="209.649027" y="185.878758" style="fill: #ff7f0e; stroke: #ff7f0e"/>
     <use xlink:href="#mcf2ce6b215" x="217.018181" y="186.01048" style="fill: #ff7f0e; stroke: #ff7f0e"/>
     <use xlink:href="#mcf2ce6b215" x="224.439201" y="186.190415" style="fill: #ff7f0e; stroke: #ff7f0e"/>
     <use xlink:href="#mcf2ce6b215" x="231.900645" y="186.412832" style="fill: #ff7f0e; stroke: #ff7f0e"/>
     <use xlink:href="#mcf2ce6b215" x="239.391007" y="186.672603" style="fill: #ff7f0e; stroke: #ff7f0e"/>
     <use xlink:href="#mcf2ce6b215" x="246.898738" y="186.965189" style="fill: #ff7f0e; stroke: #ff7f0e"/>
     <use xlink:href="#mcf2ce6b215" x="254.412262" y="187.286618" style="fill: #ff7f0e; stroke: #ff7f0e"/>
     <use xlink:href="#mcf2ce6b215" x="261.919993" y="187.633469" style="fill: #ff7f0e; stroke: #ff7f0e"/>
     <use xlink:href="#mcf2ce6b215" x="269.410355" y="188.002858" style="fill: #ff7f0e; stroke: #ff7f0e"/>
     <use xlink:href="#mcf2ce6b215" x="276.871799" y="188.392412" style="fill: #ff7f0e; stroke: #ff7f0e"/>
     <use xlink:href="#mcf2ce6b215" x="284.292819" y="188.800254" style="fill: #ff7f0e; stroke: #ff7f0e"/>
     <use xlink:href="#mcf2ce6b215" x="291.661973" y="189.224979" style="fill: #ff7f0e; stroke: #ff7f0e"/>
     <use xlink:href="#mcf2ce6b215" x="298.967897" y="189.66563" style="fill: #ff7f0e; stroke: #ff7f0e"/>
     <use xlink:href="#mcf2ce6b215" x="306.199328" y="190.121677" style="fill: #ff7f0e; stroke: #ff7f0e"/>
     <use xlink:href="#mcf2ce6b215" x="313.345114" y="190.592989" style="fill: #ff7f0e; stroke: #ff7f0e"/>
     <use xlink:href="#mcf2ce6b215" x="320.394237" y="191.079815" style="fill: #ff7f0e; stroke: #ff7f0e"/>
     <use xlink:href="#mcf2ce6b215" x="327.335828" y="191.582751" style="fill: #ff7f0e; stroke: #ff7f0e"/>
     <use xlink:href="#mcf2ce6b215" x="334.159183" y="192.102723" style="fill: #ff7f0e; stroke: #ff7f0e"/>
     <use xlink:href="#mcf2ce6b215" x="340.853782" y="192.640961" style="fill: #ff7f0e; stroke: #ff7f0e"/>
     <use xlink:href="#mcf2ce6b215" x="347.409301" y="193.198973" style="fill: #ff7f0e; stroke: #ff7f0e"/>
     <use xlink:href="#mcf2ce6b215" x="353.815634" y="193.778535" style="fill: #ff7f0e; stroke: #ff7f0e"/>
     <use xlink:href="#mcf2ce6b215" x="360.062901" y="194.381666" style="fill: #ff7f0e; stroke: #ff7f0e"/>
     <use xlink:href="#mcf2ce6b215" x="366.141469" y="195.010624" style="fill: #ff7f0e; stroke: #ff7f0e"/>
     <use xlink:href="#mcf2ce6b215" x="372.041967" y="195.667895" style="fill: #ff7f0e; stroke: #ff7f0e"/>
     <use xlink:href="#mcf2ce6b215" x="377.755295" y="196.3562" style="fill: #ff7f0e; stroke: #ff7f0e"/>
     <use xlink:href="#mcf2ce6b215" x="383.272645" y="197.078504" style="fill: #ff7f0e; stroke: #ff7f0e"/>
     <use xlink:href="#mcf2ce6b215" x="388.585508" y="197.838043" style="fill: #ff7f0e; stroke: #ff7f0e"/>
     <use xlink:href="#mcf2ce6b215" x="393.685694" y="198.638363" style="fill: #ff7f0e; stroke: #ff7f0e"/>
     <use xlink:href="#mcf2ce6b215" x="398.565338" y="199.483383" style="fill: #ff7f0e; stroke: #ff7f0e"/>
     <use xlink:href="#mcf2ce6b215" x="403.216915" y="200.377483" style="fill: #ff7f0e; stroke: #ff7f0e"/>
     <use xlink:href="#mcf2ce6b215" x="407.633253" y="201.325626" style="fill: #ff7f0e; stroke: #ff7f0e"/>
     <use xlink:href="#mcf2ce6b215" x="411.807544" y="202.333534" style="fill: #ff7f0e; stroke: #ff7f0e"/>
     <use xlink:href="#mcf2ce6b215" x="415.733349" y="203.407926" style="fill: #ff7f0e; stroke: #ff7f0e"/>
     <use xlink:href="#mcf2ce6b215" x="419.404616" y="204.556854" style="fill: #ff7f0e; stroke: #ff7f0e"/>
     <use xlink:href="#mcf2ce6b215" x="422.815685" y="205.790172" style="fill: #ff7f0e; stroke: #ff7f0e"/>
     <use xlink:href="#mcf2ce6b215" x="425.961295" y="207.12022" style="fill: #ff7f0e; stroke: #ff7f0e"/>
     <use xlink:href="#mcf2ce6b215" x="428.836596" y="208.562821" style="fill: #ff7f0e; stroke: #ff7f0e"/>
     <use xlink:href="#mcf2ce6b215" x="431.437155" y="210.138811" style="fill: #ff7f0e; stroke: #ff7f0e"/>
     <use xlink:href="#mcf2ce6b215" x="433.758961" y="211.876441" style="fill: #ff7f0e; stroke: #ff7f0e"/>
     <use xlink:href="#mcf2ce6b215" x="435.798436" y="213.81537" style="fill: #ff7f0e; stroke: #ff7f0e"/>
     <use xlink:href="#mcf2ce6b215" x="437.552433" y="216.013661" style="fill: #ff7f0e; stroke: #ff7f0e"/>
     <use xlink:href="#mcf2ce6b215" x="439.018249" y="218.560989" style="fill: #ff7f0e; stroke: #ff7f0e"/>
     <use xlink:href="#mcf2ce6b215" x="440.193623" y="221.606035" style="fill: #ff7f0e; stroke: #ff7f0e"/>
     <use xlink:href="#mcf2ce6b215" x="441.076743" y="225.420965" style="fill: #ff7f0e; stroke: #ff7f0e"/>
     <use xlink:href="#mcf2ce6b215" x="441.666247" y="230.57833" style="fill: #ff7f0e; stroke: #ff7f0e"/>
     <use xlink:href="#mcf2ce6b215" x="441.961227" y="238.324568" style="fill: #ff7f0e; stroke: #ff7f0e"/>
    </g>
   </g>
   <g id="patch_3">
    <path d="M 59.276 303.64
L 59.276 25.44
" style="fill: none; stroke: #000000; stroke-width: 0.8; stroke-linejoin: miter; stroke-linecap: square"/>
   </g>
   <g id="patch_4">
    <path d="M 442.035 303.64
L 442.035 25.44
" style="fill: none; stroke: #000000; stroke-width: 0.8; stroke-linejoin: miter; stroke-linecap: square"/>
   </g>
   <g id="patch_5">
    <path d="M 59.276 303.64
L 442.035 303.64
" style="fill: none; stroke: #000000; stroke-width: 0.8; stroke-linejoin: miter; stroke-linecap: square"/>
   </g>
   <g id="patch_6">
    <path d="M 59.276 25.44
L 442.035 25.44
" style="fill: none; stroke: #000000; stroke-width: 0.8; stroke-linejoin: miter; stroke-linecap: square"/>
   </g>
   <g id="text_15">
    <!-- Pressure coefficient at 4.18° -->
    <g transform="translate(165.567062 19.44) scale(0.12 -0.12)">
     <defs>
      <path id="DejaVuSans-50" d="M 1259 4147
L 1259 2394
L 2053 2394
Q 2494 2394 2734 2622
Q 2975 2850 2975 3272
Q 2975 3691 2734 3919
Q 2494 4147 2053 4147
L 1259 4147
z
M 628 4666
L 2053 4666
Q 2838 4666 3239 4311
Q 3641 3956 3641 3272
Q 3641 2581 3239 2228
Q 2838 1875 2053 1875
L 1259 1875
L 1259 0
L 628 0
L 628 4666
z
" transform="scale(0.015625)"/>
      <path id="DejaVuSans-72" d="M 2631 2963
Q 2534 3019 2420 3045
Q 2306 3072 2169 3072
Q 1681 3072 1420 2755
Q 1159 2438 1159 1844
L 1159 0
L 581 0
L 581 3500
L 1159 3500
L 1159 2956
Q 1341 3275 1631 3429
Q 1922 3584 2338 3584
Q 2397 3584 2469 3576
Q 2541 3569 2628 3553
L 2631 2963
z
" transform="scale(0.015625)"/>
      <path id="DejaVuSans-65" d="M 3597 1894
L 3597 1613
L 953 1613
Q 991 1019 1311 708
Q 1631 397 2203 397
Q 2534 397 2845 478
Q 3156 559 3463 722
L 3463 178
Q 3153 47 2828 -22
Q 2503 -91 2169 -91
Q 1331 -91 842 396
Q 353 884 353 1716
Q 353 2575 817 3079
Q 1281 3584 2069 3584
Q 2775 3584 3186 3129
Q 3597 2675 3597 1894
z
M 3022 2063
Q 3016 2534 2758 2815
Q 2500 3097 2075 3097
Q 1594 3097 1305 2825
Q 1016 2553 972 2059
L 3022 2063
z
" transform="scale(0.015625)"/>
      <path id="DejaVuSans-73" d="M 2834 3397
L 2834 2853
Q 2591 2978 2328 3040
Q 2066 3103 1784 3103
Q 1356 3103 1142 2972
Q 928 2841 928 2578
Q 928 2378 1081 2264
Q 1234 2150 1697 2047
L 1894 2003
Q 2506 1872 2764 1633
Q 3022 1394 3022 966
Q 3022 478 2636 193
Q 2250 -91 1575 -91
Q 1294 -91 989 -36
Q 684 19 347 128
L 347 722
Q 666 556 975 473
Q 1284 391 1588 391
Q 1994 391 2212 530
Q 2431 669 2431 922
Q 2431 1156 2273 1281
Q 2116 1406 1581 1522
L 1381 1569
Q 847 1681 609 1914
Q 372 2147 372 2553
Q 372 3047 722 3315
Q 1072 3584 1716 3584
Q 2034 3584 2315 3537
Q 2597 3491 2834 3397
z
" transform="scale(0.015625)"/>
      <path id="DejaVuSans-75" d="M 544 1381
L 544 3500
L 1119 3500
L 1119 1403
Q 1119 906 1312 657
Q 1506 409 1894 409
Q 2359 409 2629 706
Q 2900 1003 2900 1516
L 2900 3500
L 3475 3500
L 3475 0
L 2900 0
L 2900 538
Q 2691 219 2414 64
Q 2138 -91 1772 -91
Q 1169 -91 856 284
Q 544 659 544 1381
z
M 1991 3584
L 1991 3584
z
" transform="scale(0.015625)"/>
      <path id="DejaVuSans-20" transform="scale(0.015625)"/>
      <path id="DejaVuSans-6f" d="M 1959 3097
Q 1497 3097 1228 2736
Q 959 2375 959 1747
Q 959 1119 1226 758
Q 1494 397 1959 397
Q 2419 397 2687 759
Q 2956 1122 2956 1747
Q 2956 2369 2687 2733
Q 2419 3097 1959 3097
z
M 1959 3584
Q 2709 3584 3137 3096
Q 3566 2609 3566 1747
Q 3566 888 3137 398
Q 2709 -91 1959 -91
Q 1206 -91 779 398
Q 353 888 353 1747
Q 353 2609 779 3096
Q 1206 3584 1959 3584
z
" transform="scale(0.015625)"/>
      <path id="DejaVuSans-66" d="M 2375 4863
L 2375 4384
L 1825 4384
Q 1516 4384 1395 4259
Q 1275 4134 1275 3809
L 1275 3500
L 2222 3500
L 2222 3053
L 1275 3053
L 1275 0
L 697 0
L 697 3053
L 147 3053
L 147 3500
L 697 3500
L 697 3744
Q 697 4328 969 4595
Q 1241 4863 1831 4863
L 2375 4863
z
" transform="scale(0.015625)"/>
      <path id="DejaVuSans-69" d="M 603 3500
L 1178 3500
L 1178 0
L 603 0
L 603 3500
z
M 603 4863
L 1178 4863
L 1178 4134
L 603 4134
L 603 4863
z
" transform="scale(0.015625)"/>
      <path id="DejaVuSans-6e" d="M 3513 2113
L 3513 0
L 2938 0
L 2938 2094
Q 2938 2591 2744 2837
Q 2550 3084 2163 3084
Q 1697 3084 1428 2787
Q 1159 2491 1159 1978
L 1159 0
L 581 0
L 581 3500
L 1159 3500
L 1159 2956
Q 1366 3272 1645 3428
Q 1925 3584 2291 3584
Q 2894 3584 3203 3211
Q 3513 2838 3513 2113
z
" transform="scale(0.015625)"/>
      <path id="DejaVuSans-74" d="M 1172 4494
L 1172 3500
L 2356 3500
L 2356 3053
L 1172 3053
L 1172 1153
Q 1172 725 1289 603
Q 1406 481 1766 481
L 2356 481
L 2356 0
L 1766 0
Q 1100 0 847 248
Q 594 497 594 1153
L 594 3053
L 172 3053
L 172 3500
L 594 3500
L 594 4494
L 1172 4494
z
" transform="scale(0.015625)"/>
      <path id="DejaVuSans-61" d="M 2194 1759
Q 1497 1759 1228 1600
Q 959 1441 959 1056
Q 959 750 1161 570
Q 1363 391 1709 391
Q 2188 391 2477 730
Q 2766 1069 2766 1631
L 2766 1759
L 2194 1759
z
M 3341 1997
L 3341 0
L 2766 0
L 2766 531
Q 2569 213 2275 61
Q 1981 -91 1556 -91
Q 1019 -91 701 211
Q 384 513 384 1019
Q 384 1609 779 1909
Q 1175 2209 1959 2209
L 2766 2209
L 2766 2266
Q 2766 2663 2505 2880
Q 2244 3097 1772 3097
Q 1472 3097 1187 3025
Q 903 2953 641 2809
L 641 3341
Q 956 3463 1253 3523
Q 1550 3584 1831 3584
Q 2591 3584 2966 3190
Q 3341 2797 3341 1997
z
" transform="scale(0.015625)"/>
      <path id="DejaVuSans-b0" d="M 1600 4347
Q 1350 4347 1178 4173
Q 1006 4000 1006 3750
Q 1006 3503 1178 3333
Q 1350 3163 1600 3163
Q 1850 3163 2022 3333
Q 2194 3503 2194 3750
Q 2194 3997 2020 4172
Q 1847 4347 1600 4347
z
M 1600 4750
Q 1800 4750 1984 4673
Q 2169 4597 2303 4453
Q 2447 4313 2519 4134
Q 2591 3956 2591 3750
Q 2591 3338 2302 3052
Q 2013 2766 1594 2766
Q 1172 2766 890 3047
Q 609 3328 609 3750
Q 609 4169 896 4459
Q 1184 4750 1600 4750
z
" transform="scale(0.015625)"/>
     </defs>
     <use xlink:href="#DejaVuSans-50"/>
     <use xlink:href="#DejaVuSans-72" transform="translate(58.552734 0)"/>
     <use xlink:href="#DejaVuSans-65" transform="translate(97.416016 0)"/>
     <use xlink:href="#DejaVuSans-73" transform="translate(158.939453 0)"/>
     <use xlink:href="#DejaVuSans-73" transform="translate(211.039062 0)"/>
     <use xlink:href="#DejaVuSans-75" transform="translate(263.138672 0)"/>
     <use xlink:href="#DejaVuSans-72" transform="translate(326.517578 0)"/>
     <use xlink:href="#DejaVuSans-65" transform="translate(365.380859 0)"/>
     <use xlink:href="#DejaVuSans-20" transform="translate(426.904297 0)"/>
     <use xlink:href="#DejaVuSans-63" transform="translate(458.691406 0)"/>
     <use xlink:href="#DejaVuSans-6f" transform="translate(513.671875 0)"/>
     <use xlink:href="#DejaVuSans-65" transform="translate(574.853516 0)"/>
     <use xlink:href="#DejaVuSans-66" transform="translate(636.376953 0)"/>
     <use xlink:href="#DejaVuSans-66" transform="translate(671.582031 0)"/>
     <use xlink:href="#DejaVuSans-69" transform="translate(706.787109 0)"/>
     <use xlink:href="#DejaVuSans-63" transform="translate(734.570312 0)"/>
     <use xlink:href="#DejaVuSans-69" transform="translate(789.550781 0)"/>
     <use xlink:href="#DejaVuSans-65" transform="translate(817.333984 0)"/>
     <use xlink:href="#DejaVuSans-6e" transform="translate(878.857422 0)"/>
     <use xlink:href="#DejaVuSans-74" transform="translate(942.236328 0)"/>
     <use xlink:href="#DejaVuSans-20" transform="translate(981.445312 0)"/>
     <use xlink:href="#DejaVuSans-61" transform="translate(1013.232422 0)"/>
     <use xlink:href="#DejaVuSans-74" transform="translate(1074.511719 0)"/>
     <use xlink:href="#DejaVuSans-20" transform="translate(1113.720703 0)"/>
     <use xlink:href="#DejaVuSans-34" transform="translate(1145.507812 0)"/>
     <use xlink:href="#DejaVuSans-2e" transform="translate(1209.130859 0)"/>
     <use xlink:href="#DejaVuSans-31" transform="translate(1240.917969 0)"/>
     <use xlink:href="#DejaVuSans-38" transform="translate(1304.541016 0)"/>
     <use xlink:href="#DejaVuSans-b0" transform="translate(1368.164062 0)"/>
    </g>
   </g>
   <g id="legend_1">
    <g id="patch_7">
     <path d="M 333.600625 62.79625
L 435.035 62.79625
Q 437.035 62.79625 437.035 60.79625
L 437.035 32.44
Q 437.035 30.44 435.035 30.44
L 333.600625 30.44
Q 331.600625 30.44 331.600625 32.44
L 331.600625 60.79625
Q 331.600625 62.79625 333.600625 62.79625
z
" style="fill: #ffffff; opacity: 0.8; stroke: #cccccc; stroke-linejoin: miter"/>
    </g>
    <g id="line2d_15">
     <g>
      <use xlink:href="#mec15b9ddcd" x="345.600625" y="38.538437" style="fill: #1f77b4; stroke: #1f77b4"/>
     </g>
    </g>
    <g id="text_16">
     <!-- upper surface -->
     <g transform="translate(363.600625 42.038437) scale(0.1 -0.1)">
      <defs>
       <path id="DejaVuSans-70" d="M 1159 525
L 1159 -1331
L 581 -1331
L 581 3500
L 1159 3500
L 1159 2969
Q 1341 3281 1617 3432
Q 1894 3584 2278 3584
Q 2916 3584 3314 3078
Q 3713 2572 3713 1747
Q 3713 922 3314 415
Q 2916 -91 2278 -91
Q 1894 -91 1617 61
Q 1341 213 1159 525
z
M 3116 1747
Q 3116 2381 2855 2742
Q 2594 3103 2138 3103
Q 1681 3103 1420 2742
Q 1159 2381 1159 1747
Q 1159 1113 1420 752
Q 1681 391 2138 391
Q 2594 391 2855 752
Q 3116 1113 3116 1747
z
" transform="scale(0.015625)"/>
      </defs>
      <use xlink:href="#DejaVuSans-75"/>
      <use xlink:href="#DejaVuSans-70" transform="translate(63.378906 0)"/>
      <use xlink:href="#DejaVuSans-70" transform="translate(126.855469 0)"/>
      <use xlink:href="#DejaVuSans-65" transform="translate(190.332031 0)"/>
      <use xlink:href="#DejaVuSans-72" transform="translate(251.855469 0)"/>
      <use xlink:href="#DejaVuSans-20" transform="translate(292.96875 0)"/>
      <use xlink:href="#DejaVuSans-73" transform="translate(324.755859 0)"/>
      <use xlink:href="#DejaVuSans-75" transform="translate(376.855469 0)"/>
      <use xlink:href="#DejaVuSans-72" transform="translate(440.234375 0)"/>
      <use xlink:href="#DejaVuSans-66" transform="translate(481.347656 0)"/>
      <use xlink:href="#DejaVuSans-61" transform="translate(516.552734 0)"/>
      <use xlink:href="#DejaVuSans-63" transform="translate(577.832031 0)"/>
      <use xlink:href="#DejaVuSans-65" transform="translate(632.8125 0)"/>
     </g>
    </g>
    <g id="line2d_16">
     <g>
      <use xlink:href="#mcf2ce6b215" x="345.600625" y="53.216562" style="fill: #ff7f0e; stroke: #ff7f0e"/>
     </g>
    </g>
    <g id="text_17">
     <!-- lower surface -->
     <g transform="translate(363.600625 56.716562) scale(0.1 -0.1)">
      <defs>
       <path id="DejaVuSans-6c" d="M 603 4863
L 1178 4863
L 1178 0
L 603 0
L 603 4863
z
" transform="scale(0.015625)"/>
       <path id="DejaVuSans-77" d="M 269 3500
L 844 3500
L 1563 769
L 2278 3500
L 2956 3500
L 3675 769
L 4391 3500
L 4966 3500
L 4050 0
L 3372 0
L 2619 2869
L 1863 0
L 1184 0
L 269 3500
z
" transform="scale(0.015625)"/>
      </defs>
      <use xlink:href="#DejaVuSans-6c"/>
      <use xlink:href="#DejaVuSans-6f" transform="translate(27.783203 0)"/>
      <use xlink:href="#DejaVuSans-77" transform="translate(88.964844 0)"/>
      <use xlink:href="#DejaVuSans-65" transform="translate(170.751953 0)"/>
      <use xlink:href="#DejaVuSans-72" transform="translate(232.275391 0)"/>
      <use xlink:href="#DejaVuSans-20" transform="translate(273.388672 0)"/>
      <use xlink:href="#DejaVuSans-73" transform="translate(305.175781 0)"/>
      <use xlink:href="#DejaVuSans-75" transform="translate(357.275391 0)"/>
      <use xlink:href="#DejaVuSans-72" transform="translate(420.654297 0)"/>
      <use xlink:href="#DejaVuSans-66" transform="translate(461.767578 0)"/>
      <use xlink:href="#DejaVuSans-61" transform="translate(496.972656 0)"/>
      <use xlink:href="#DejaVuSans-63" transform="translate(558.251953 0)"/>
      <use xlink:href="#DejaVuSans-65" transform="translate(613.232422 0)"/>
     </g>
    </g>
   </g>
  </g>
 </g>
 <defs>
  <clipPath id="pf5489fe53a">
   <rect x="59.276" y="25.44" width="382.759" height="278.2"/>
  </clipPath>
 </defs>
</svg>
